<svg width="36" height="36" viewBox="0 0 36 36" fill="none" xmlns="http://www.w3.org/2000/svg">
<path d="M13.0396 0.237743C12.9733 0.37616 13.5705 1.01288 14.3502 1.62191C15.2959 2.39705 15.7604 2.92303 15.7604 3.25523C15.777 3.50438 15.8765 4.03037 15.9926 4.36257C16.1751 4.94392 16.1585 5.11002 15.7272 5.8021C15.1797 6.71565 15.1465 7.54615 15.5779 8.73654L15.8931 9.59472L15.3954 11.0066L14.9143 12.4184L13.5539 10.6744C11.729 8.32129 10.0369 6.52187 8.52719 5.33148C7.29954 4.36257 7.24977 4.33488 5.75668 4.50098C4.9106 4.58403 3.71613 4.91623 3.06912 5.24843C1.75853 5.94052 0 7.40774 0 7.82299C0 8.37666 1.72535 11.9478 2.68756 13.3873C3.79908 15.076 5.40829 16.5709 6.88479 17.3184C8.27834 18.0105 10.8995 18.0105 12.1106 17.3184C13.4046 16.5986 14.2673 15.7404 14.2673 15.2145C14.2673 14.7992 14.1677 14.7992 13.3217 15.1037C12.7908 15.2698 11.7788 15.6297 11.082 15.8789C9.25714 16.5156 7.99631 16.4602 6.53641 15.6297C5.09309 14.8269 4.23041 13.9687 3.11889 12.2246C2.35576 11.0619 1.16129 8.57044 1.16129 8.18287C1.16129 7.87836 2.48848 6.90944 3.69954 6.35577C4.37972 6.05125 5.44147 5.77442 6.07189 5.74674C7.06728 5.71905 7.38249 5.85747 8.3447 6.6326C9.63871 7.71226 11.5134 10.01 13.2221 12.5845C14.1346 13.9687 14.4498 14.3009 14.5493 13.9964C14.6654 13.6642 14.8313 13.6642 15.7604 13.9964C17.1539 14.4947 19.0783 14.467 20.3226 13.9687C21.1687 13.6365 21.3346 13.6365 21.4673 13.9687C21.6 14.2455 21.965 13.8856 23.1263 12.197C25.1502 9.31789 26.2286 7.98909 27.6221 6.71565C28.6673 5.77442 28.8995 5.66369 29.8618 5.71905C31.2387 5.77442 32.8811 6.41114 34.0756 7.35237L35.0046 8.07214L34.4571 9.34557C32.6986 13.4704 30.2433 15.9619 27.7051 16.2387C26.7429 16.3495 25.93 16.1834 24.1051 15.5467C22.2968 14.9376 21.7327 14.8269 21.7327 15.1037C21.7327 15.6851 22.5124 16.5156 23.6903 17.2077C25.1171 18.0105 27.4396 18.0658 29.0323 17.3184C30.6415 16.5433 32.3005 14.993 33.4783 13.1659C34.4903 11.5879 36 8.37666 36 7.82299C36 7.43542 34.5235 6.16199 33.1465 5.35917C32.3005 4.86087 31.4212 4.61172 30.2765 4.50098L28.6175 4.33488L27.1742 5.60832C25.565 7.02017 24.2876 8.40434 22.3631 10.8405L21.1023 12.4461L20.6046 11.0066L20.1069 9.59472L20.4221 8.73654C20.87 7.51847 20.8203 6.71565 20.2396 5.74674C19.8747 5.1377 19.7751 4.8055 19.8912 4.58403C19.9908 4.39025 20.0903 3.94732 20.1235 3.55975C20.1733 3.03376 20.4553 2.67388 21.5336 1.78801C22.2802 1.17898 22.8774 0.514577 22.894 0.320793C22.894 -0.122141 22.5954 -0.0944573 21.7493 0.403843C20.7705 0.957511 20.1899 1.73265 19.6258 3.11681C19.1945 4.22415 19.1447 4.27952 18.7465 3.94732C18.1991 3.4767 17.5687 3.50438 17.1539 4.00268C16.8221 4.39025 16.7723 4.33488 16.2747 3.00608C15.8599 1.89875 15.5779 1.4835 14.7318 0.819094C13.6535 -0.0390906 13.1889 -0.205191 13.0396 0.237743Z" fill="#CA8A04"/>
<path d="M14.035 17.3461C14.0018 17.6229 13.9188 18.3704 13.8525 18.9794L13.7529 20.1421L14.4663 20.585C16.6064 21.8862 19.4101 21.8585 21.5336 20.5574C22.1806 20.1421 22.2303 20.0591 22.1474 19.3116C21.8488 16.7371 21.882 16.8201 21.5004 16.9862C21.3179 17.0693 20.4552 17.3184 19.6257 17.5676C18.0663 18.0105 16.4239 17.8721 14.9142 17.1523C14.1677 16.7924 14.1345 16.7924 14.035 17.3461Z" fill="#CA8A04"/>
<path d="M12.8737 21.3602C12.1271 22.772 11.5963 24.3223 11.1649 26.2601C10.8497 27.755 10.7834 28.5302 10.8 31.6307C10.8 33.6239 10.8331 35.3403 10.8829 35.451C10.9161 35.5894 11.0654 35.6171 11.1981 35.5064C11.3806 35.3956 11.447 34.925 11.447 33.8454C11.447 32.9041 11.6129 31.5477 11.8617 30.385C12.094 29.333 12.2764 27.9488 12.2764 27.2844C12.2764 26.4262 12.376 25.9556 12.6248 25.568C13.1557 24.7929 13.6036 22.9935 13.6036 21.637C13.6036 21.0003 13.5539 20.4743 13.4709 20.4743C13.4046 20.4743 13.1391 20.8896 12.8737 21.3602Z" fill="#CA8A04"/>
<path d="M22.3962 21.5263C22.3962 22.9104 22.728 24.35 23.3087 25.5127C23.5907 26.0663 23.7234 26.6754 23.7234 27.3674C23.7234 27.9488 23.8893 29.1392 24.0884 30.0527C24.2875 30.9386 24.4866 32.4889 24.5363 33.4855C24.6193 34.842 24.7022 35.3126 24.9013 35.3679C25.1336 35.451 25.1833 35.0081 25.2497 32.3505C25.3658 27.3121 24.8847 24.7375 23.2755 21.8585L22.4128 20.3359L22.3962 21.5263Z" fill="#CA8A04"/>
<path d="M13.6369 25.4019L13.6867 27.2567L14.765 27.9211C15.6775 28.5025 16.1586 28.5855 17.9171 28.6132C19.7088 28.6409 20.1402 28.5579 21.1024 27.9765C22.2968 27.2567 22.3964 27.0076 22.3964 24.5714C22.3964 23.6302 22.3466 23.4918 22.1143 23.6579C19.7918 25.2358 16.8388 25.4019 14.5494 24.1008L13.5872 23.5472L13.6369 25.4019Z" fill="#CA8A04"/>
<path d="M14.4331 31.5753C14.8478 32.9041 15.7934 34.5928 16.5068 35.3126C17.3861 36.1431 18.2819 36.2261 19.1778 35.5341C19.9409 34.925 21.1022 33.0702 21.4838 31.8245C21.7492 30.9386 21.7492 30.9109 21.4672 31.1324C19.5593 32.4335 16.4405 32.4335 14.5326 31.1324C14.2506 30.9386 14.2506 30.9663 14.4331 31.5753Z" fill="#CA8A04"/>
</svg>
